<?xml version="1.0" encoding="utf-8"?>
<!-- Generator: Adobe Illustrator 19.2.1, SVG Export Plug-In . SVG Version: 6.00 Build 0)  -->
<svg version="1.1" id="Layer_1" xmlns="http://www.w3.org/2000/svg" xmlns:xlink="http://www.w3.org/1999/xlink" x="0px" y="0px"
	 viewBox="0 0 300 75.5" style="enable-background:new 0 0 300 75.5;" xml:space="preserve">
<style type="text/css">
	.st0{fill:#FF0000;}
</style>
<g>
	<g>
		<path class="st0" d="M84.1,9.5h-4.4V7.1h17.7v2.4h-4.5l10.5,35.8h4v2.3H90.3v-2.4h4.3l-4.3-14.7c-0.4,1.9-1,3.9-1.9,6
			c-0.8,2.1-1.9,4.1-3,5.8c-1.2,1.8-2.6,3.2-4,4.4c-1.5,1.1-3,1.6-4.5,1.6c-1.7,0-3.3-0.6-4.5-1.7c-1.2-1.2-1.9-2.8-1.9-5.1
			c0-2,0.4-4.2,1.3-6.7c0.9-2.4,2.1-4.9,3.5-7.3c1.4-2.5,3-5.1,4.9-7.9c0.1-0.2,0.7-1.1,1.7-2.6c1-1.6,1.7-2.7,2.1-3.5
			c0.3-0.8,0.5-1.6,0.5-2.6C84.3,10.6,84.3,10,84.1,9.5z M88.7,25.1l-2.6-9.1c-2.1,3-4,5.8-5.4,8.6c-1.1,2-2,3.7-2.7,5.4
			c-0.7,1.6-1.2,3.4-1.3,5.3v1.5c0.2,1.8,1.4,2.8,3.2,2.8c1.4,0,2.8-0.8,4-2.6c1.2-1.7,2.3-3.7,3.1-6S88.5,26.9,88.7,25.1z"/>
		<path class="st0" d="M125.5,25.6c-0.2,0.8-0.7,2.2-1.6,4.1c-1.3,2.9-2.1,5.1-2.6,6.5c-0.4,1.4-0.7,2.8-0.7,4.3s0.3,2.9,1,4.3
			c0.2,0.4,0.5,0.9,0.7,1.3c0.2,0.4,0.4,0.7,0.4,0.9c0,0.5-0.3,0.7-1.1,0.7c-0.3,0-0.8,0-1.5,0c-0.7,0-1.2,0-1.6,0
			c-0.3,0-0.7,0-1.3,0.1c-0.6,0.1-1.1,0.1-1.3,0.1c-0.7,0-1.2-0.1-1.5-0.3c-0.2-0.2-0.3-0.7-0.3-1.6c0-2.1,0.5-4.3,1.6-6.4
			c1.1-2.1,2.6-4.8,4.6-7.9c0.6-0.9,1.2-1.7,1.6-2.6c0.5-0.9,1.1-1.7,1.5-2.6c0.4-0.8,0.6-1.6,0.6-2.2c0-0.5-0.1-1-0.3-1.7v-0.7
			c0.2-0.3,0.5-0.5,1.2-0.5h5.1c0.7,0,1.2,0.1,1.5,0.2c0.2,0.2,0.3,0.6,0.3,1.2c0,2.1,0.8,5.7,2.5,10.8c1.1,3.4,2,6,2.6,7.7
			c0.7,1.7,1.2,3,1.6,4c0.4,0.9,0.7,1.5,0.7,1.7c0,0.3-0.1,0.6-0.3,0.7s-0.7,0.2-1.2,0.2c-0.6,0-1.3-0.1-2.3-0.1s-1.7,0-2.3,0.1
			c-0.5,0-0.8-0.1-1.2-0.3c-0.2-0.2-0.6-0.7-0.9-1.3c-0.3-0.7-0.7-1.6-1-2.8c-0.3-1.2-1-3.3-1.7-6.2c-0.2-0.7-0.3-1.2-0.4-1.6
			c-0.1-0.3-0.2-0.7-0.3-1.2c-0.5-1.6-0.8-3.1-1.2-4.7c-0.2-0.9-0.3-1.6-0.4-2C125.6,26.7,125.6,26.1,125.5,25.6z"/>
		<path class="st0" d="M158.1,25.6c-0.2,0.8-0.7,2.2-1.6,4.1c-1.3,2.9-2.1,5.1-2.6,6.5c-0.4,1.4-0.7,2.8-0.7,4.3s0.3,2.9,1,4.3
			c0.2,0.4,0.5,0.9,0.7,1.3c0.2,0.4,0.4,0.7,0.4,0.9c0,0.5-0.3,0.7-1.1,0.7c-0.3,0-0.8,0-1.5,0c-0.7,0-1.2,0-1.6,0
			c-0.3,0-0.7,0-1.3,0.1c-0.6,0.1-1.1,0.1-1.3,0.1c-0.7,0-1.2-0.1-1.5-0.3c-0.2-0.2-0.3-0.7-0.3-1.6c0-2.1,0.5-4.3,1.6-6.4
			c1.1-2.1,2.6-4.8,4.6-7.9c0.6-0.9,1.2-1.7,1.6-2.6c0.5-0.9,1.1-1.7,1.5-2.6c0.4-0.8,0.6-1.6,0.6-2.2c0-0.5-0.1-1-0.3-1.7v-0.7
			c0.2-0.3,0.5-0.5,1.2-0.5h5.1c0.7,0,1.2,0.1,1.5,0.2c0.2,0.2,0.3,0.6,0.3,1.2c0,2.1,0.8,5.7,2.5,10.8c1.1,3.4,2,6,2.6,7.7
			c0.7,1.7,1.2,3,1.6,4c0.4,0.9,0.7,1.5,0.7,1.7c0,0.3-0.1,0.6-0.3,0.7s-0.7,0.2-1.2,0.2s-1.3-0.1-2.3-0.1c-1,0-1.7,0-2.3,0.1
			c-0.5,0-0.8-0.1-1.2-0.3c-0.2-0.2-0.6-0.7-0.9-1.3c-0.3-0.7-0.7-1.6-1-2.8c-0.3-1.2-1-3.3-1.7-6.2c-0.2-0.7-0.3-1.2-0.4-1.6
			c-0.1-0.3-0.2-0.7-0.3-1.2c-0.5-1.6-0.8-3.1-1.2-4.7c-0.2-0.9-0.3-1.6-0.4-2C158.3,26.7,158.2,26.1,158.1,25.6z"/>
		<path class="st0" d="M189.3,21.2h5.8c0.4,0,0.6,0.1,0.7,0.3c0,0.2,0,0.4,0.1,0.7c0,0.2,0.1,0.5,0.1,0.8c0.1,0.3,0.2,0.7,0.2,1.2
			c0.2,0.5,0.3,1,0.4,1.6c0.2,0.5,0.2,1.1,0.4,1.7c0.1,0.3,0.2,0.9,0.4,1.7c1.2,4.7,2.1,8.2,2.9,10.5c0.7,2.3,1.4,4.1,1.9,5.3
			c0.5,1.2,0.7,1.9,0.7,2.1c0,0.3-0.4,0.5-1.2,0.5H196c-0.2,0-0.5-0.3-0.7-0.9c-0.1-0.6-0.3-1.6-0.7-3c-0.2-0.4-0.4-1.2-0.7-2.1
			c-0.2-0.8-0.4-1.6-0.7-2.6c-1.9,6.1-4.9,9.2-9,9.2c-1.5,0-2.7-0.4-3.6-1.2c-0.9-0.8-1.6-1.7-1.9-2.9c-0.4-1.2-0.6-2.2-0.6-3.3
			c0-1,0.2-2.1,0.7-3.2c0.5-1.2,1.2-2.2,1.9-3.4c0.7-1.2,1.4-2,2-2.6c0.5-0.6,1.4-1.6,2.5-2.9c0.5-0.6,1.1-1.2,1.7-1.9
			c0.7-0.7,1.1-1.2,1.3-1.5c0.2-0.3,0.3-0.6,0.3-0.9c0-0.5-0.2-1.1-0.4-1.9c-0.1-0.4-0.2-0.7-0.2-1.2
			C188.3,21.3,188.6,21.2,189.3,21.2z M189.8,26.9c-2.2,2.4-3.7,4.4-4.4,6.3c-0.7,1.8-1.2,3.2-1.2,4.1c0,1,0.2,1.9,0.8,2.6
			c0.6,0.8,1.4,1.2,2.6,1.2c1,0,1.9-0.2,2.6-0.7c0.7-0.5,1.3-1.2,1.6-1.8c0.4-0.7,0.6-1.4,0.6-2c0-0.7-0.3-2.1-0.9-4.1
			c-0.4-1.2-0.7-2-0.7-2.5C190.5,28.8,190.2,27.8,189.8,26.9z"/>
		<path class="st0" d="M236.5,31.9l-3-0.5c0.5-1.3,0.7-2.4,0.7-3.2c0-2.1-0.7-3.5-2.1-4.1c-1.3-0.6-2.9-0.9-4.7-0.9h-1c0,1,0,2,0,3
			c0,1.1,0,1.8,0,2.3c-0.1,1.6-0.1,3-0.1,3.9c0,1.9,0,4.5,0.1,7.8c0.1,3.3,0.2,5.4,0.2,6.2c0,0.6-0.1,1-0.3,1.2s-0.9,0.4-1.9,0.4
			h-3.4c-0.6,0-1-0.2-1.2-0.4c-0.2-0.3-0.3-0.8-0.4-1.6c-0.1-0.8-0.1-2.2-0.1-4.4c0-0.7,0-1.3,0-2c0-0.7,0-1.2,0-1.6v-2.5
			c0-2.1,0-4.3,0.1-6.5c0-0.2,0-0.7,0.1-1.8c0.1-1.1,0.1-2.4,0.1-4h-1c-4.4,0-6.7,1.6-6.7,5c0,0.5,0.2,1.6,0.7,3.2l-3,0.5
			c-0.7-2.4-1.9-4.6-3.3-6.8c-0.7-1-1-1.8-1-2.6c0-0.6,0.2-1.1,0.5-1.5s0.7-0.6,1.2-0.6c0.3,0,1.4,0.2,3.3,0.4
			c1.6,0.2,4,0.2,7.3,0.2h10.5c3.4,0,5.8-0.1,7.3-0.2c1.9-0.2,3-0.4,3.3-0.4c0.4,0,0.8,0.2,1.2,0.6s0.5,0.9,0.5,1.5
			c0,0.7-0.3,1.6-1,2.6c-0.8,1.2-1.5,2.3-1.9,3.2C237.4,29.2,236.9,30.4,236.5,31.9z"/>
		<path class="st0" d="M257.7,32.5v12.8h4.7v2.4h-18.2v-2.4h4.7V24.5c0-3,0.1-5.8,0.2-8.7c1.2-2.7,2.9-4.9,5.4-6.4
			c2.6-1.6,5.3-2.3,8.3-2.3c3,0,5.6,0.5,7.7,1.5s3.8,2.4,4.9,4.1s1.6,3.6,1.6,5.8c0,2.1-0.4,4-1.2,5.6c-0.8,1.6-2,3-3.5,4
			c-1.5,1-3.1,1.5-4.9,1.5c-0.9,0-1.6-0.1-2.2-0.3c-0.6-0.2-1.4-0.6-2.5-1.2c-0.6-0.3-1-0.5-1.2-0.7L257.7,32.5z M257.7,29.1
			l3.6-4.6c0.3,0.2,0.7,0.5,1.2,0.7c0.4,0.2,0.7,0.2,0.9,0.2c0.9,0,1.7-0.5,2.6-1.5s1.2-2.9,1.2-5.6c0-2.7-0.3-4.9-1-6.5
			c-0.7-1.6-1.9-2.4-3.8-2.4c-1.4,0-2.4,0.5-3.1,1.5s-1.1,2.2-1.3,3.6c-0.2,1.4-0.2,3.3-0.2,5.4v1.4L257.7,29.1L257.7,29.1z"/>
		<path class="st0" d="M286.4,21.2h5.8c0.4,0,0.6,0.1,0.7,0.3c0,0.2,0,0.4,0.1,0.7c0,0.2,0.1,0.5,0.1,0.8c0.1,0.3,0.2,0.7,0.2,1.2
			c0.2,0.5,0.3,1,0.4,1.6c0.2,0.5,0.2,1.1,0.4,1.7c0.1,0.3,0.2,0.9,0.4,1.7c1.2,4.7,2.1,8.2,2.9,10.5s1.4,4.1,1.9,5.3
			c0.5,1.2,0.7,1.9,0.7,2.1c0,0.3-0.4,0.5-1.2,0.5h-5.8c-0.2,0-0.5-0.3-0.7-0.9c-0.1-0.6-0.3-1.6-0.7-3c-0.2-0.4-0.4-1.2-0.7-2.1
			c-0.2-0.8-0.4-1.6-0.7-2.6c-1.9,6.1-4.9,9.2-9,9.2c-1.5,0-2.7-0.4-3.6-1.2s-1.6-1.7-1.9-2.9c-0.4-1.2-0.6-2.2-0.6-3.3
			c0-1,0.2-2.1,0.7-3.2c0.5-1.2,1.2-2.2,1.9-3.4s1.4-2,2-2.6c0.5-0.6,1.4-1.6,2.5-2.9c0.5-0.6,1.1-1.2,1.7-1.9
			c0.7-0.7,1.1-1.2,1.3-1.5c0.2-0.3,0.3-0.6,0.3-0.9c0-0.5-0.2-1.1-0.4-1.9c-0.1-0.4-0.2-0.7-0.2-1.2
			C285.3,21.3,285.6,21.2,286.4,21.2z M286.9,26.9c-2.2,2.4-3.7,4.4-4.4,6.3c-0.7,1.8-1.2,3.2-1.2,4.1c0,1,0.2,1.9,0.8,2.6
			c0.6,0.8,1.4,1.2,2.6,1.2c1,0,1.9-0.2,2.6-0.7s1.3-1.2,1.6-1.8c0.4-0.7,0.6-1.4,0.6-2c0-0.7-0.3-2.1-0.9-4.1
			c-0.4-1.2-0.7-2-0.7-2.5C287.5,28.8,287.2,27.8,286.9,26.9z"/>
	</g>
	<g>
		<path d="M70.4,63.8v-6.5h1.3l1.5,4.6c0.1,0.4,0.2,0.7,0.3,1c0.1-0.2,0.2-0.6,0.3-1l1.5-4.5h1.2v6.5h-0.8v-5.4l-1.9,5.4h-0.8
			l-1.9-5.5v5.5H70.4z"/>
		<path d="M78.4,63.8v-6.5H83v0.8h-3.8v2h3.6v0.8h-3.6v2.2h4v0.8H78.4z"/>
		<path d="M88.6,57.4v2.8c0.4,0,0.7-0.1,0.9-0.2c0.2-0.2,0.4-0.5,0.6-1.1c0.2-0.4,0.3-0.7,0.4-0.9c0.1-0.2,0.3-0.3,0.5-0.4
			c0.2-0.1,0.4-0.2,0.7-0.2c0.3,0,0.5,0,0.5,0v0.7c0,0-0.1,0-0.2,0c-0.1,0-0.2,0-0.2,0c-0.3,0-0.5,0.1-0.6,0.2
			c-0.1,0.1-0.3,0.4-0.5,0.8c-0.2,0.5-0.4,0.8-0.5,1c-0.1,0.2-0.3,0.3-0.6,0.4c0.4,0.1,0.8,0.5,1.2,1.2l1.3,2.2h-1.1l-1.1-1.8
			c-0.3-0.5-0.5-0.8-0.7-1c-0.2-0.2-0.5-0.3-0.8-0.3v3h-0.9v-3c-0.3,0-0.5,0.1-0.7,0.2c-0.2,0.1-0.5,0.5-0.8,1l-0.1,0.1l-1.1,1.8H84
			l1.3-2.2c0.4-0.7,0.8-1,1.2-1.2c-0.2-0.1-0.4-0.2-0.6-0.4c-0.1-0.2-0.3-0.5-0.5-1c-0.2-0.5-0.3-0.8-0.5-0.9
			c-0.1-0.1-0.3-0.2-0.6-0.2l-0.3,0v-0.7c0,0,0.2,0,0.5,0c0.3,0,0.5,0.1,0.7,0.2c0.2,0.1,0.4,0.3,0.5,0.4c0.1,0.2,0.3,0.5,0.5,0.9
			c0.2,0.6,0.4,0.9,0.6,1.1c0.2,0.1,0.4,0.2,0.9,0.2v-2.8H88.6z"/>
		<path d="M94,57.4h3.9v5.7h0.6v2.3h-0.8v-1.5h-4.3v1.5h-0.8v-2.3h0.5c0.5-0.8,0.8-2.4,0.8-4.8V57.4z M97,58.1h-2.3v0.3
			c0,0.5,0,1.3-0.1,2.3c-0.1,1-0.3,1.7-0.6,2.4h3V58.1z"/>
		<path d="M99.3,57.4h0.9l2.1,4l1.8-4h0.9l-2.4,5c-0.3,0.6-0.6,1-0.7,1.2c-0.2,0.2-0.5,0.3-0.8,0.3c-0.2,0-0.5-0.1-0.8-0.2V63
			c0.2,0.1,0.5,0.2,0.7,0.2c0.2,0,0.4-0.1,0.5-0.2c0.2-0.1,0.3-0.4,0.5-0.9L99.3,57.4z"/>
		<path d="M106,63.8v-6.5h0.9V60h3.4v-2.7h0.9v6.5h-0.9v-3h-3.4v3H106z"/>
		<path d="M112.2,63.8l2.5-6.5h0.9l2.6,6.5h-1l-0.8-2h-2.7l-0.7,2H112.2z M114,61.2h2.2l-0.7-1.8c-0.2-0.5-0.4-1-0.5-1.3
			c-0.1,0.4-0.2,0.8-0.3,1.2L114,61.2z"/>
		<path d="M119.2,63.8v-6.5h2.4c0.4,0,0.8,0,1,0.1c0.3,0.1,0.6,0.2,0.8,0.3c0.2,0.1,0.4,0.4,0.5,0.6s0.2,0.6,0.2,0.9
			c0,0.5-0.2,1-0.5,1.4c-0.3,0.4-1,0.6-1.9,0.6h-1.7v2.6H119.2z M120.1,60.4h1.7c0.6,0,0.9-0.1,1.2-0.3c0.2-0.2,0.3-0.5,0.3-0.9
			c0-0.3-0.1-0.5-0.2-0.7c-0.1-0.2-0.3-0.3-0.5-0.4c-0.1,0-0.4-0.1-0.8-0.1h-1.7V60.4z"/>
		<path d="M125.1,60.7c0-1.1,0.3-1.9,0.9-2.5c0.6-0.6,1.3-0.9,2.2-0.9c0.6,0,1.1,0.1,1.6,0.4c0.5,0.3,0.8,0.7,1.1,1.2
			c0.3,0.5,0.4,1.1,0.4,1.7c0,0.7-0.1,1.2-0.4,1.8c-0.3,0.5-0.6,0.9-1.1,1.2c-0.5,0.3-1,0.4-1.6,0.4c-0.6,0-1.2-0.1-1.6-0.4
			c-0.5-0.3-0.8-0.7-1.1-1.2C125.3,61.8,125.1,61.2,125.1,60.7z M126,60.7c0,0.8,0.2,1.4,0.6,1.8c0.4,0.4,0.9,0.7,1.6,0.7
			c0.6,0,1.2-0.2,1.6-0.7s0.6-1.1,0.6-1.9c0-0.5-0.1-1-0.3-1.4c-0.2-0.4-0.4-0.7-0.8-0.9c-0.3-0.2-0.7-0.3-1.2-0.3
			c-0.6,0-1.1,0.2-1.6,0.6C126.2,59,126,59.7,126,60.7z"/>
		<path d="M133.2,57.4h3.9v5.7h0.6v2.3h-0.8v-1.5h-4.3v1.5h-0.8v-2.3h0.5c0.5-0.8,0.8-2.4,0.8-4.8V57.4z M136.2,58.1H134v0.3
			c0,0.5,0,1.3-0.1,2.3c-0.1,1-0.3,1.7-0.6,2.4h3V58.1z"/>
		<path d="M139.1,63.8v-6.5h0.9V60h3.4v-2.7h0.9v6.5h-0.9v-3h-3.4v3H139.1z"/>
		<path d="M145.6,60.7c0-1.1,0.3-1.9,0.9-2.5c0.6-0.6,1.3-0.9,2.2-0.9c0.6,0,1.1,0.1,1.6,0.4c0.5,0.3,0.8,0.7,1.1,1.2
			c0.3,0.5,0.4,1.1,0.4,1.7c0,0.7-0.1,1.2-0.4,1.8c-0.3,0.5-0.6,0.9-1.1,1.2c-0.5,0.3-1,0.4-1.6,0.4c-0.6,0-1.2-0.1-1.6-0.4
			c-0.5-0.3-0.8-0.7-1.1-1.2C145.8,61.8,145.6,61.2,145.6,60.7z M146.5,60.7c0,0.8,0.2,1.4,0.6,1.8c0.4,0.4,0.9,0.7,1.6,0.7
			c0.6,0,1.2-0.2,1.6-0.7c0.4-0.5,0.6-1.1,0.6-1.9c0-0.5-0.1-1-0.3-1.4c-0.2-0.4-0.4-0.7-0.8-0.9c-0.3-0.2-0.7-0.3-1.2-0.3
			c-0.6,0-1.1,0.2-1.6,0.6C146.7,59,146.5,59.7,146.5,60.7z"/>
		<path d="M153.3,63.8v-6.5h4.7v0.8h-3.8v2h3.6v0.8h-3.6v2.2h4v0.8H153.3z"/>
		<path d="M162.2,60.7c0-1.1,0.3-1.9,0.9-2.5c0.6-0.6,1.3-0.9,2.2-0.9c0.6,0,1.1,0.1,1.6,0.4c0.5,0.3,0.8,0.7,1.1,1.2
			c0.3,0.5,0.4,1.1,0.4,1.7c0,0.7-0.1,1.2-0.4,1.8c-0.3,0.5-0.6,0.9-1.1,1.2c-0.5,0.3-1,0.4-1.6,0.4c-0.6,0-1.2-0.1-1.6-0.4
			c-0.5-0.3-0.8-0.7-1.1-1.2C162.3,61.8,162.2,61.2,162.2,60.7z M163.1,60.7c0,0.8,0.2,1.4,0.6,1.8c0.4,0.4,0.9,0.7,1.6,0.7
			c0.6,0,1.2-0.2,1.6-0.7s0.6-1.1,0.6-1.9c0-0.5-0.1-1-0.3-1.4c-0.2-0.4-0.4-0.7-0.8-0.9c-0.3-0.2-0.7-0.3-1.2-0.3
			c-0.6,0-1.1,0.2-1.6,0.6C163.3,59,163.1,59.7,163.1,60.7z"/>
		<path d="M169.9,57.4h4.2v0.8h-3.3v2h1.5c0.6,0,1,0.1,1.4,0.2c0.3,0.1,0.6,0.3,0.8,0.6c0.2,0.3,0.3,0.7,0.3,1.1
			c0,0.3-0.1,0.6-0.2,0.9c-0.1,0.3-0.4,0.5-0.7,0.7c-0.3,0.2-0.8,0.3-1.5,0.3h-2.5V57.4z M170.7,63.1h1.7c0.5,0,0.8-0.1,1-0.3
			c0.2-0.2,0.3-0.5,0.3-0.8c0-0.3-0.1-0.5-0.2-0.7c-0.1-0.2-0.3-0.3-0.6-0.4c-0.2-0.1-0.6-0.1-1.2-0.1h-1.1V63.1z"/>
		<path d="M176.1,57.4h0.9v5.7h2.1v-5.7h0.9v5.7h2.1v-5.7h0.9v5.7h0.6v2.6h-0.8v-1.8h-6.7V57.4z"/>
		<path d="M184.9,63.8v-6.5h4.7v0.8h-3.8v2h3.6v0.8h-3.6v2.2h4v0.8H184.9z"/>
		<path d="M195.9,61.6l0.9,0.2c-0.2,0.7-0.5,1.2-1,1.6c-0.5,0.4-1,0.6-1.7,0.6c-0.7,0-1.3-0.1-1.7-0.4c-0.4-0.3-0.8-0.7-1-1.2
			c-0.2-0.5-0.3-1.1-0.3-1.7c0-0.7,0.1-1.3,0.4-1.8c0.3-0.5,0.6-0.9,1.1-1.1s1-0.4,1.6-0.4c0.6,0,1.2,0.2,1.6,0.5
			c0.4,0.3,0.7,0.8,0.9,1.4l-0.8,0.2c-0.1-0.5-0.4-0.8-0.7-1c-0.3-0.2-0.6-0.3-1.1-0.3c-0.5,0-0.9,0.1-1.2,0.4
			c-0.3,0.2-0.6,0.6-0.7,1c-0.1,0.4-0.2,0.8-0.2,1.2c0,0.5,0.1,1,0.2,1.4c0.2,0.4,0.4,0.7,0.7,0.9c0.3,0.2,0.7,0.3,1.1,0.3
			c0.5,0,0.9-0.1,1.2-0.4C195.5,62.5,195.8,62.1,195.9,61.6z"/>
		<path d="M199.5,63.8v-5.7h-2.1v-0.8h5.1v0.8h-2.1v5.7H199.5z"/>
		<path d="M203.7,63.8v-6.5h2.4c0.5,0,0.9,0.1,1.2,0.2c0.3,0.1,0.5,0.3,0.7,0.6c0.2,0.3,0.3,0.6,0.3,0.9c0,0.3-0.1,0.5-0.2,0.8
			c-0.1,0.2-0.4,0.4-0.7,0.6c0.4,0.1,0.7,0.3,0.9,0.6c0.2,0.3,0.3,0.6,0.3,1c0,0.3-0.1,0.6-0.2,0.8s-0.3,0.5-0.5,0.6
			c-0.2,0.1-0.4,0.2-0.7,0.3c-0.3,0.1-0.6,0.1-1,0.1H203.7z M204.5,60.1h1.4c0.4,0,0.7,0,0.8-0.1c0.2-0.1,0.4-0.2,0.5-0.3
			c0.1-0.1,0.2-0.3,0.2-0.6c0-0.2-0.1-0.4-0.2-0.6c-0.1-0.2-0.2-0.3-0.4-0.3c-0.2-0.1-0.5-0.1-1-0.1h-1.3V60.1z M204.5,63.1h1.6
			c0.3,0,0.5,0,0.6,0c0.2,0,0.4-0.1,0.5-0.2c0.1-0.1,0.2-0.2,0.3-0.4c0.1-0.2,0.1-0.3,0.1-0.5c0-0.2-0.1-0.4-0.2-0.6
			c-0.1-0.2-0.3-0.3-0.5-0.4c-0.2-0.1-0.5-0.1-0.9-0.1h-1.5V63.1z"/>
		<path d="M210.1,63.8v-6.5h4.7v0.8h-3.8v2h3.6v0.8h-3.6v2.2h4v0.8H210.1z"/>
		<path d="M216.5,63.8v-6.5h0.9V60h3.4v-2.7h0.9v6.5h-0.9v-3h-3.4v3H216.5z"/>
		<path d="M223.3,63.8v-6.5h0.9V60h3.4v-2.7h0.9v6.5h-0.9v-3h-3.4v3H223.3z"/>
		<path d="M229.9,60.7c0-1.1,0.3-1.9,0.9-2.5c0.6-0.6,1.3-0.9,2.2-0.9c0.6,0,1.1,0.1,1.6,0.4c0.5,0.3,0.8,0.7,1.1,1.2
			c0.3,0.5,0.4,1.1,0.4,1.7c0,0.7-0.1,1.2-0.4,1.8c-0.3,0.5-0.6,0.9-1.1,1.2c-0.5,0.3-1,0.4-1.6,0.4c-0.6,0-1.2-0.1-1.6-0.4
			c-0.5-0.3-0.8-0.7-1.1-1.2C230,61.8,229.9,61.2,229.9,60.7z M230.8,60.7c0,0.8,0.2,1.4,0.6,1.8c0.4,0.4,0.9,0.7,1.6,0.7
			c0.6,0,1.2-0.2,1.6-0.7c0.4-0.5,0.6-1.1,0.6-1.9c0-0.5-0.1-1-0.3-1.4c-0.2-0.4-0.4-0.7-0.8-0.9c-0.3-0.2-0.7-0.3-1.2-0.3
			c-0.6,0-1.1,0.2-1.6,0.6C231,59,230.8,59.7,230.8,60.7z"/>
		<path d="M237.5,63.8v-6.5h4.7v0.8h-3.8v2h3.6v0.8h-3.6v2.2h4v0.8H237.5z"/>
		<path d="M247.3,57.4h3.9v5.7h0.6v2.3h-0.8v-1.5h-4.3v1.5H246v-2.3h0.5c0.5-0.8,0.8-2.4,0.8-4.8V57.4z M250.4,58.1h-2.3v0.3
			c0,0.5,0,1.3-0.1,2.3c-0.1,1-0.3,1.7-0.6,2.4h3V58.1z"/>
		<path d="M253.2,63.8v-6.5h2.4c0.5,0,0.9,0.1,1.2,0.2c0.3,0.1,0.5,0.3,0.7,0.6c0.2,0.3,0.3,0.6,0.3,0.9c0,0.3-0.1,0.5-0.2,0.8
			c-0.1,0.2-0.4,0.4-0.7,0.6c0.4,0.1,0.7,0.3,0.9,0.6c0.2,0.3,0.3,0.6,0.3,1c0,0.3-0.1,0.6-0.2,0.8c-0.1,0.3-0.3,0.5-0.5,0.6
			c-0.2,0.1-0.4,0.2-0.7,0.3c-0.3,0.1-0.6,0.1-1,0.1H253.2z M254,60.1h1.4c0.4,0,0.7,0,0.8-0.1c0.2-0.1,0.4-0.2,0.5-0.3
			c0.1-0.1,0.2-0.3,0.2-0.6c0-0.2-0.1-0.4-0.2-0.6c-0.1-0.2-0.2-0.3-0.4-0.3c-0.2-0.1-0.5-0.1-1-0.1H254V60.1z M254,63.1h1.6
			c0.3,0,0.5,0,0.6,0c0.2,0,0.4-0.1,0.5-0.2c0.1-0.1,0.2-0.2,0.3-0.4c0.1-0.2,0.1-0.3,0.1-0.5c0-0.2-0.1-0.4-0.2-0.6
			c-0.1-0.2-0.3-0.3-0.5-0.4c-0.2-0.1-0.5-0.1-0.9-0.1H254V63.1z"/>
		<path d="M259.6,57.4h0.8v5.1l3.4-5.1h0.9v6.5h-0.8v-5.1l-3.4,5.1h-0.9V57.4z"/>
		<path d="M270.3,57.4v2.8c0.4,0,0.7-0.1,0.9-0.2c0.2-0.2,0.4-0.5,0.6-1.1c0.2-0.4,0.3-0.7,0.4-0.9c0.1-0.2,0.3-0.3,0.5-0.4
			c0.2-0.1,0.4-0.2,0.7-0.2c0.3,0,0.5,0,0.5,0v0.7c0,0-0.1,0-0.2,0c-0.1,0-0.2,0-0.2,0c-0.3,0-0.5,0.1-0.6,0.2
			c-0.1,0.1-0.3,0.4-0.5,0.8c-0.2,0.5-0.4,0.8-0.5,1c-0.1,0.2-0.3,0.3-0.6,0.4c0.4,0.1,0.8,0.5,1.2,1.2l1.3,2.2h-1.1l-1.1-1.8
			c-0.3-0.5-0.5-0.8-0.7-1c-0.2-0.2-0.5-0.3-0.8-0.3v3h-0.9v-3c-0.3,0-0.5,0.1-0.7,0.2c-0.2,0.1-0.5,0.5-0.8,1l-0.1,0.1l-1.1,1.8
			h-1.1l1.3-2.2c0.4-0.7,0.8-1,1.2-1.2c-0.2-0.1-0.4-0.2-0.6-0.4c-0.1-0.2-0.3-0.5-0.5-1c-0.2-0.5-0.3-0.8-0.5-0.9
			c-0.1-0.1-0.3-0.2-0.6-0.2l-0.3,0v-0.7c0,0,0.2,0,0.5,0c0.3,0,0.5,0.1,0.7,0.2c0.2,0.1,0.4,0.3,0.5,0.4c0.1,0.2,0.3,0.5,0.5,0.9
			c0.2,0.6,0.4,0.9,0.6,1.1c0.2,0.1,0.4,0.2,0.9,0.2v-2.8H270.3z"/>
		<path d="M275.1,63.8v-6.5h4.7v0.8h-3.8v2h3.6v0.8h-3.6v2.2h4v0.8H275.1z"/>
		<path d="M281.5,63.8v-6.5h0.9V60h3.4v-2.7h0.9v6.5h-0.9v-3h-3.4v3H281.5z"/>
		<path d="M288.3,57.4h0.8v5.1l3.4-5.1h0.9v6.5h-0.8v-5.1l-3.4,5.1h-0.9V57.4z"/>
		<path d="M295.1,63.8v-6.5h4.7v0.8H296v2h3.6v0.8H296v2.2h4v0.8H295.1z"/>
	</g>
	<g id="sign_16_">
		<g>
			<path d="M58.5,50.3c0.1,0,0.1,0,0.1,0.1c-1.1,11.1-11.5,23.9-28.7,23.9c-17.2,0-27.6-12.8-28.7-23.9c0-0.1,0.1-0.1,0.1-0.1
				c0,0,0.1,0,0.1,0.1C4,53.8,12.1,64.2,29.9,64.2s25.9-10.4,28.5-13.8C58.4,50.3,58.5,50.3,58.5,50.3 M58.7,48.1
				c-0.3,0.2-1,1.3-1.2,1.6C51.3,57.9,41.7,63,29.9,63S8.5,57.9,2.4,49.7c-0.2-0.3-0.9-1.4-1.3-1.6c-0.4-0.2-0.7,0-0.9,0.1
				c-0.3,0.3-0.1,2-0.1,2.4c0.3,2.9,1.1,5.9,2.5,8.8c1.5,3,3.5,5.7,6,8.1c2.7,2.5,5.8,4.5,9.2,5.9c3.7,1.5,7.7,2.3,12.1,2.3
				s8.3-0.8,12-2.3c3.4-1.4,6.5-3.3,9.2-5.9c2.5-2.3,4.5-5.1,6-8.1c1.5-2.9,2.2-5.9,2.5-8.8c0-0.4,0.2-2-0.1-2.4
				C59.3,47.8,58.9,48,58.7,48.1z"/>
		</g>
		<path d="M29.9,1.3c3.9,0,7.6,0.8,11.2,2.3C44.5,5,47.6,7,50.2,9.7c2.6,2.6,4.7,5.7,6.1,9.1c1.5,3.5,2.3,7.3,2.3,11.2
			s-0.8,7.6-2.3,11.2c-1.4,3.4-3.5,6.5-6.1,9.1c-2.6,2.6-5.7,4.7-9.1,6.1c-3.5,1.5-7.3,2.3-11.2,2.3s-7.6-0.8-11.2-2.3
			c-3.4-1.4-6.5-3.5-9.1-6.1C7,47.6,5,44.5,3.5,41.1C2,37.6,1.3,33.8,1.3,29.9S2,22.3,3.5,18.8C5,15.4,7,12.3,9.7,9.7
			C12.3,7,15.4,5,18.8,3.5C22.3,2,26.1,1.3,29.9,1.3 M29.9,0C13.4,0,0,13.4,0,29.9s13.4,29.9,29.9,29.9s29.9-13.4,29.9-29.9
			S46.5,0,29.9,0L29.9,0z"/>
	</g>
</g>
</svg>
