<svg xmlns="http://www.w3.org/2000/svg" viewBox="0 0 82 82"><defs><style>.cls-1{fill:#fff}</style></defs><g id="Layer_2" data-name="Layer 2"><g id="Icons"><path class="cls-1" d="M41 82a41 41 0 1141-41 41 41 0 01-41 41zm0-80a39 39 0 1039 39A39 39 0 0041 2z"/><path class="cls-1" d="M39.52 32a5.68 5.68 0 011 3.4 5 5 0 01-1 3.28 5.3 5.3 0 01-1.7 1.27 5 5 0 012.57 2 5.9 5.9 0 01.87 3.26 6.47 6.47 0 01-1 3.55 6.14 6.14 0 01-4.09 2.87 15.4 15.4 0 01-3.14.3H23V29.59h10.75q4.07.06 5.77 2.41zm-12.08 1.45v4.91h5.41a4.49 4.49 0 002.35-.55 2.11 2.11 0 00.9-2 2 2 0 00-1.19-2.06 8.38 8.38 0 00-2.63-.35zm0 8.59V48h5.4a5.27 5.27 0 002.25-.39 2.8 2.8 0 001.46-2.78 2.39 2.39 0 00-1.42-2.39 5.65 5.65 0 00-2.22-.44zm27.26-6.32a6.64 6.64 0 012.84 2.44 8 8 0 011.31 3.4 21.22 21.22 0 01.15 3.27H47a4 4 0 001.72 3.47 4.36 4.36 0 002.37.62 3.64 3.64 0 002.39-.75 3.55 3.55 0 00.9-1.17h4.39a5.41 5.41 0 01-1.59 3A8 8 0 0151 52.41a8.94 8.94 0 01-5.79-2q-2.52-2-2.51-6.59 0-4.28 2.26-6.57A7.94 7.94 0 0150.83 35a9.35 9.35 0 013.87.72zm-6.43 3.72A4.49 4.49 0 0047.12 42h7.41a3.61 3.61 0 00-1.15-2.6 3.78 3.78 0 00-2.55-.89 3.41 3.41 0 00-2.57.93zm7.27-8.82H46v2.78h9.53z"/></g></g></svg>