<svg xmlns="http://www.w3.org/2000/svg" viewBox="0 0 82 82"><g fill="#fff" data-name="Layer 2"><path d="M41 82a41 41 0 1141-41 41 41 0 01-41 41zm0-80a39 39 0 1039 39A39 39 0 0041 2z"/><path d="M58.62 37.38a18 18 0 00-2.7-6.44 18.31 18.31 0 00-2.2-2.66 17.88 17.88 0 00-9.1-4.91 18 18 0 00-18.54 7.57A17.8 17.8 0 0024.43 34a18 18 0 000 14 17.8 17.8 0 001.66 3.06A18 18 0 0041 59a18 18 0 0012.72-5.27 18.36 18.36 0 002.2-2.66 18 18 0 002.7-13.69zm-2.26 3.47a35.5 35.5 0 00-10.7-.5l-.33-.79c-.32-.75-.66-1.5-1-2.23 6.06-2.48 8.53-6 8.55-6.08a15.3 15.3 0 013.48 9.6zm-5.21-11.39c0 .06-2.23 3.39-8 5.57a77.89 77.89 0 00-5.74-9 15.33 15.33 0 0113.77 3.4zm-13.83-3.39zm-2.87 1a91.89 91.89 0 015.7 8.93A56.75 56.75 0 0126 37.83a15.39 15.39 0 018.45-10.73zM25.64 41v-.48a56.41 56.41 0 0015.77-2.19c.44.86.86 1.74 1.25 2.61l-.61.18c-8.28 2.68-12.48 10.14-12.48 10.14A15.32 15.32 0 0125.64 41zM41 56.37a15.3 15.3 0 01-9.79-3.52l.35.27s2.94-6.43 12.05-9.6h.1A63.64 63.64 0 0147 55.15a15.29 15.29 0 01-6 1.22zm8.58-2.62a66.72 66.72 0 00-3-11 22.21 22.21 0 019.57.67 15.37 15.37 0 01-6.57 10.33z" fill-rule="evenodd"/></g></svg>