<svg xmlns="http://www.w3.org/2000/svg" viewBox="0 0 82 82"><defs><style>.cls-1{fill:#fff}</style></defs><g id="Layer_2" data-name="Layer 2"><g id="Icons"><path class="cls-1" d="M41 82a41 41 0 1141-41 41 41 0 01-41 41zm0-80a39 39 0 1039 39A39 39 0 0041 2z"/><path class="cls-1" d="M35 57.11c-4.28 0-7.37-2.71-7.37-6s3.83-5.84 8.11-5.8a9.31 9.31 0 012.77.44c2.32 1.62 4 2.53 4.46 4.37a4.94 4.94 0 01.14 1.15c0 3.25-2.1 5.79-8.11 5.79M36.17 38c-2.87-.09-5.6-3.21-6.1-7s1.43-6.66 4.3-6.58 5.6 3.11 6.1 6.88-1.47 6.82-4.3 6.7m6 5.59c-1-.71-2.93-2.45-2.93-3.47 0-1.2.34-1.79 2.14-3.19a7.49 7.49 0 003.15-5.82c0-2.81-1.25-5.54-3.59-6.44h3.53l2.49-1.8H35.77c-5 0-9.7 3.79-9.7 8.17s3.41 8.1 8.49 8.1h1a4.52 4.52 0 00-.56 2.08 4.33 4.33 0 001.52 3.08h-1.93c-6.19 0-11 3.94-11 8s5.22 6.54 11.41 6.54c7.06 0 11-4 11-8 0-3.23-1-5.16-3.9-7.24m16.22-5.26H54V34h-3.49v4.34h-4.34v3.49h4.34v4.34H54v-4.32h4.34z"/></g></g></svg>