<svg xmlns="http://www.w3.org/2000/svg" viewBox="0 0 82 82"><defs><style>.cls-1{fill:#fff}</style></defs><g id="Layer_2" data-name="Layer 2"><g id="Icons"><path class="cls-1" d="M41 82a41 41 0 1141-41 41 41 0 01-41 41zm0-80a39 39 0 1039 39A39 39 0 0041 2z"/><path class="cls-1" d="M52 23H30a7 7 0 00-7 7v22a7 7 0 007 7h22a7 7 0 007-7V30a7 7 0 00-7-7zm2 4.15h.79v6.1h-6.08v-6.1zM35.87 37.31a6.32 6.32 0 11-1.2 3.69 6.33 6.33 0 011.2-3.69zM55.5 52a3.45 3.45 0 01-3.5 3.48H30A3.45 3.45 0 0126.51 52V37.31h5.37a9.84 9.84 0 1018.24 0h5.38z"/></g></g></svg>