<svg xmlns="http://www.w3.org/2000/svg" viewBox="0 0 82 82"><defs><style>.cls-1{fill:#fff}</style></defs><g id="Layer_2" data-name="Layer 2"><g id="Icons"><path class="cls-1" d="M41 82a41 41 0 1141-41 41 41 0 01-41 41zm0-80a39 39 0 1039 39A39 39 0 0041 2z"/><path class="cls-1" d="M59 31.78a14.8 14.8 0 01-4.24 1.16A7.38 7.38 0 0058 28.86a14.73 14.73 0 01-4.69 1.79 7.39 7.39 0 00-12.77 5.05 7.28 7.28 0 00.19 1.68 21 21 0 01-15.23-7.71 7.4 7.4 0 002.29 9.86 7.4 7.4 0 01-3.35-.92v.09a7.39 7.39 0 005.93 7.24 7.2 7.2 0 01-1.95.26 7.31 7.31 0 01-1.42-.13 7.38 7.38 0 006.9 5.13A14.94 14.94 0 0123 54.26a20.92 20.92 0 0011.32 3.32c13.59 0 21-11.25 21-21v-1a15 15 0 003.68-3.8"/></g></g></svg>